<svg id="Layer_1" data-name="Layer 1" xmlns="http://www.w3.org/2000/svg" viewBox="0 0 1080 1080"><defs><style>.cls-1{fill:#FF7517;}</style></defs><path class="cls-1" d="M641.33,383.59c.17,3.78.49,7.58,2,11.1a18.39,18.39,0,0,0,12.83,10.74c5.6,1.32,11.67-1.26,15.07-5.76a21.61,21.61,0,0,0,4-11.67c.16-2.68.18-5.38.14-8.09a61.35,61.35,0,0,0,.83-11.73c-.16-4.55-.84-9.66-2.78-13.81a18.51,18.51,0,0,0-3.32-4.81l-.71-1.17c-3.17-4.29-8.57-7-14-6s-9.36,4.85-11.78,9.68c-3.63,7.27-4,16.92-3.27,24.85A54.61,54.61,0,0,0,641.33,383.59Z"/><path class="cls-1" d="M422.58,349.56l-.71-1.17c-3.17-4.29-8.57-7-13.95-6s-9.36,4.85-11.78,9.68c-3.63,7.27-4,16.92-3.27,24.85a54.61,54.61,0,0,0,1,6.63c.16,3.78.49,7.58,2,11.1a18.35,18.35,0,0,0,12.83,10.74c5.6,1.32,11.67-1.26,15.07-5.76A21.61,21.61,0,0,0,427.71,388c.16-2.68.18-5.38.15-8.09a61.34,61.34,0,0,0,.81-11.73c-.15-4.55-.83-9.66-2.77-13.81A18.51,18.51,0,0,0,422.58,349.56Z"/><path class="cls-1" d="M537,477.43c12.14.43,24.6-1.89,35.28-7.86,8.82-4.94,21.48-11.67,23.79-22.31.49-2.24-1.64-3.66-3.56-3.65-5.06.05-9,2.3-13.46,4.47a72.31,72.31,0,0,1-13.19,5c-8.4,2.22-17.08,4.07-25.83,3.87A51.81,51.81,0,0,1,517,450.8c-7.17-3.82-11.18-9.35-16.38-15.27-7.47-8.49-22.49-1-17.71,10.17,4.46,10.44,14.8,18.35,24.49,23.65A68.13,68.13,0,0,0,537,477.43Z"/><path class="cls-1" d="M926.48,838.88c-7.8-5.93-17.71-2.29-24.46,3.41-13.55,11.46-24.48,27.23-31.81,43.29a153.92,153.92,0,0,0-9.48,28A65.18,65.18,0,0,0,859,928.75c-15.51-.8-31.15-.73-46.63-1.56q-29-1.55-57.89-4.2t-57.71-6.1c-13.73-1.65-27.65-3.88-41.55-4.23a67.6,67.6,0,0,0,2.41-26.91,10.45,10.45,0,0,0-.83-3c5.87,1.59,11.82,2.46,17.1.5a10.61,10.61,0,0,0,7.53-1.35l.14-.12a10.1,10.1,0,0,0,5.38-2.29c17.06-13.77,33.84-27.88,50.71-41.87,15.4-12.79,32.28-24.84,46.08-39.39,12.75-13.44,16-29.18,16.32-47.2.24-15.6,2.16-33,.67-49.07,1.51-5.7,1.69-11.35-.84-15.73-1.91-3.33-6-4.45-8.85-2.56-.67-15.23-1.34-30.48-2.19-45.7-.41-7.42-.87-14.83-1.47-22.23-.46-5.53-.61-12-2.13-17.61l.13-.14c8.8-9.32-7.12-21.26-15.82-12.05q-27,28.51-54,57.05-7.1,7.5-14.12,15.07c-4.16,4.51-8.78,11.52-14,14.88-5.92,3.83-13.09.78-19.3-.65l-20.09-4.64-29.66-6.85L607.48,637.1c-2.68-5.78-5.2-11.68-8.11-17.34-.55-1.06-1.08-2.12-1.61-3.18,56.18-13.91,106.58-39.2,147.27-72.9,63.64-52.66,103.71-126.32,103.69-208S808.67,180.37,745,127.7s-151.06-85-247.33-85S314,75,250.36,127.7,146.66,254,146.67,335.69s40.05,155.33,103.69,208c50.81,42.09,116.76,71.08,190.24,81.11C430,647.86,421.79,672,412.17,695.5q-7,17.13-14.38,34.11c-5.26,12.15-9.79,25.63-16.63,37-4,6.62-1.4,15.42,7,16.59,11.16,1.57,20.43,8.62,30.88,12.43,2.46.9,5,1.68,7.5,2.42-.82,7.91-1.64,15.82-2.39,23.74-1.83,19.21-4.24,38.61-2.41,57.92,3.51,37.06,27,62.42,60.5,76.22a232.33,232.33,0,0,0,55,15.33c4.34,2,8.72,4.06,13.07,6.1,16.77,7.87,33.59,15.63,50.37,23.46,34.18,16,68.33,32.08,101.85,49.38a8.58,8.58,0,0,0,5.15.76c1.94,4.29,6.42,7,11.89,4.1a83,83,0,0,0,37-40.47c6.18-14.4,12.45-40.62.09-53.51-15.93-16.63-35.42,5.65-43.55,18.74a113.11,113.11,0,0,0-16,44.21c-29-13.7-57.83-27.6-86.92-41q-13-6-26.12-11.91a113.25,113.25,0,0,0,12.55-2.8c22.25-6.49,42-21.79,52.8-41.73,14.49,4.82,30,7,45,9.22q29.74,4.34,59.66,7.2c38.21,3.67,78,8.21,116.46,6.31a6.87,6.87,0,0,0,2.35-.58v0c2.71,4.57,10,6.84,14.32,2.75,12.87-12.25,24.55-24.43,33-40.28a110.74,110.74,0,0,0,13.08-49.43C933.44,853.7,933.6,844.29,926.48,838.88ZM782,694.27a7.81,7.81,0,0,0,5.46-1.56,39.48,39.48,0,0,1-.54,4.37,31.42,31.42,0,0,1-4.21,10.4c-3.94,6.27-10.13,11.76-17.53,13.38-10.66,2.33-4.41-10.69-1.41-15C768,699.91,774.12,693.55,782,694.27ZM691.68,838.72l3.75-54.07c1.25-18,2.59-36,3.68-54.07.86-14.18,3.3-29.65,2.16-44.17,9-7.3,16.74-17,24.57-25.31q24-25.29,47.81-50.7c.06,1.13.13,2.26.17,3.36.32,7.87.82,15.73,1.11,23.6.51,13.78.51,27.46.1,41.2-10.61,2.12-19.58,9.65-25.63,18.84-7.48,11.38-11.3,29.5,3.06,37.61,11.79,6.67,25.49-.76,34.41-9.41-.68,23.51-.92,46.94-20.21,63.88-23.95,21-49.92,40-75.21,59.51C691.48,845.2,691.48,841.65,691.68,838.72Zm32.22,165.09a99.16,99.16,0,0,1,9.92-19.06,45.54,45.54,0,0,1,5.36-7c3.83-3.8,3.76-4.25,5,.6,2.55,10.17-2.65,24.18-7.28,33a64,64,0,0,1-19.23,21.88A100.08,100.08,0,0,1,723.9,1003.81ZM586.14,626.2c2.19,6,4.72,11.86,7.1,17.78l4.89,12.19c-8.78-2-17.57-4-26.37-5.91-18.7-4.06-36.67-7.65-55.19-7.22A84.56,84.56,0,0,0,499,641.57c-3.27.11-6.27,3.64-6.56,6.74-2.92,31.16-6.72,62.27-12.3,93.08a61.6,61.6,0,0,0-16.21,20c-2.8,5.46-5.59,13-5.12,19.57-2.57-.08-5.13-.23-7.63-.47-3.08-.29-6.12-.75-9.13-1.3,1.06-8.54,2.17-17,3.23-25.48,5.29-42.18,14.59-84,18.47-126.35,11.18.9,22.51,1.39,34,1.39a418.59,418.59,0,0,0,86.07-8.89C584.56,622,585.39,624.13,586.14,626.2ZM501.82,752.42c5.85-2.53,17.59-5.27,22.68.38,5.94,6.58-5.13,14.6-10.1,17a112.29,112.29,0,0,1-34.69,10c1-3.53,1.89-7.19,3.67-10.45A39.15,39.15,0,0,1,501.82,752.42ZM172,335.69c0-73.18,35.7-139.7,94.53-188.51S407.09,68,497.7,68s172.4,30.47,231.2,79.21,94.52,115.33,94.53,188.51S787.73,475.4,728.9,524.21s-140.6,79.22-231.2,79.21S325.29,573,266.49,524.21,172,408.88,172,335.69ZM429,775.87c-2.69-.88-5.36-1.85-8-3-5.94-2.51-11.71-5.53-17.75-7.67,3.47-8.58,7.53-17,11-25.51q7.59-18.56,14.8-37.27c9.46-24.56,19.38-49.27,25.83-74.81a5.92,5.92,0,0,0,.05-1.18l.72.08c-13.23,41-18.53,85-24.06,127.53C430.6,761.32,429.8,768.6,429,775.87ZM637.16,888.78c3.59,30.81-23.63,55-51.45,61.45-14.54,3.36-30.14,3.56-45.67,1.74-1.71-.69-3.4-1.43-5.11-2.08-9-3.41-16.06-5.47-25.59-5.46a4.59,4.59,0,0,0-2.31.68,217,217,0,0,1-22.3-8c-13.59-5.77-26.56-13.89-35.28-26.07-9.8-13.69-12.48-31-13-47.43-.68-20.73.83-41.75,3.07-62.67A120.33,120.33,0,0,0,454,802.62a163.62,163.62,0,0,0,26.37-.79c-.8,3.12-1.46,6.21-2.24,8.85-2.37,8-5,16,2.42,22.23s21.42,7.55,30.67,10.12c11.22,3.12,22.48,6.11,33.72,9.13l65.73,17.64,32,8.58.16,0A9.79,9.79,0,0,0,637.16,888.78Zm-12.76-38-58.69-15.58c-18.72-5-37.43-10-56.19-14.76-4.47-1.15-9.12-2.81-13.69-3.53l.13-1.53c.21-2.22.47-4.44.71-6.66.35-3.15.84-6.52,1-9.83a124.32,124.32,0,0,0,25.52-8.74c18-8.58,33.46-31.56,18.19-50-9.79-11.81-25.94-13.24-40.21-9.4a698.07,698.07,0,0,0,6.45-74.47,108.89,108.89,0,0,1,20.6-.47l.49-.06c5.16,1.26,10.28,2.62,15.3,4,13.78,3.88,27.66,7.46,41.52,11.05,6.86,1.78,13.75,3.48,20.63,5.21.46,1.15.92,2.3,1.39,3.45,3,7.52,12.34,6.07,15.83.89q21.27,5.28,42.54,10.55c5.46,1.36,10.82,2.65,16,2.8-1.33,10.15-1.51,20.6-2.32,30.55-1.43,17.35-2.66,34.73-3.93,52.1q-1.84,25.08-3.68,50.18-.91,12.54-1.84,25.09a102.82,102.82,0,0,1-1.49,10.72c-4.48-1.59-9.45-2.36-14-3.58Zm293.07,12.15a109.26,109.26,0,0,1-11.3,38.32c-6.34,12.48-16.08,26.11-28.38,33.33a9.25,9.25,0,0,0-3.74-3.78c.72-2.45,1.44-4.91,2.1-7.34,1.83-6.73,3.5-13.4,6-19.94a149.89,149.89,0,0,1,20.56-37.17c3.83-5,7.85-11.07,13.32-14.46l1.29-.48.44,1.94C918.22,856.47,917.79,859.78,917.47,862.92Z"/></svg>