<svg id="Layer_1" data-name="Layer 1" xmlns="http://www.w3.org/2000/svg" viewBox="0 0 1080 1080"><defs><style>.cls-1{fill:#FF7517;}</style></defs><path class="cls-1" d="M521.32,295.21c.12,2.1.28,4.2.55,6.28a16.86,16.86,0,0,0,3.69,8.86,11.8,11.8,0,0,0,12,3.67,14.32,14.32,0,0,0,9.41-9,24,24,0,0,0,1-8.75,40.63,40.63,0,0,0,.39-5.21c.13-6.2-.67-13.69-3.88-19.14-2.14-3.63-5.38-6.4-9.68-6.9a11.26,11.26,0,0,0-10.53,5.39l-.49.95a14.05,14.05,0,0,0-2.32,3.92,28.42,28.42,0,0,0-1.42,10.89A48,48,0,0,0,521.32,295.21Z"/><path class="cls-1" d="M713.81,281.9c.12,2.1.28,4.2.55,6.28a16.78,16.78,0,0,0,3.69,8.86,11.8,11.8,0,0,0,12,3.67,14.32,14.32,0,0,0,9.41-9,24,24,0,0,0,1-8.75,40.76,40.76,0,0,0,.39-5.21c.13-6.2-.66-13.69-3.88-19.14-2.14-3.63-5.38-6.4-9.68-6.9a11.26,11.26,0,0,0-10.53,5.39l-.49.95a13.91,13.91,0,0,0-2.32,3.92,28.42,28.42,0,0,0-1.42,10.89A48,48,0,0,0,713.81,281.9Z"/><path class="cls-1" d="M606.29,359.39c8.62,4.07,18.44,5.21,27.86,4.22a53,53,0,0,0,22.64-7.89c7.26-4.64,14.87-11.34,17.78-19.7,3.11-8.95-9-14-14.32-7-3.73,4.88-6.55,9.4-11.92,12.76a40.49,40.49,0,0,1-17.64,6c-6.8.62-13.64-.35-20.3-1.63A56.09,56.09,0,0,1,599.87,343c-3.58-1.45-6.77-3-10.71-2.75-1.49.09-3.07,1.32-2.57,3C589,351.47,599.17,356,606.29,359.39Z"/><path class="cls-1" d="M801.09,367.65a4.84,4.84,0,0,0-4.55-3c-3.07-.12-6.13-.11-9.19-.12C806.19,330.74,815.72,293,813,253.65,804.32,128,674.92,34.23,524.24,44.64S258.31,165.75,267,291.41c6.55,94.81,81.93,171.4,183.19,198.86-4.61,4.89-9,10-13.26,14.81-9.58,10.69-18.56,21.92-27.15,33.41A567.9,567.9,0,0,0,364,610.6c-2.39,4.45.9,9.59,4.81,11.57,15.1,7.66,33.62,1.51,49.07-2,8.63-2,17.2-4.2,25.73-6.57-.5,3.22-1,6.45-1.51,9.67L431.14,693c-3.26,20.74-6.31,41.15,1.72,61.23a86.26,86.26,0,0,0,24.24,33.48c-6.9,16.55-9.8,35.43-13.69,52.8q-6.51,29.06-12.29,58.27-5.62,28.41-10.53,57-2.58,15.06-5,30.16c-1.3,8.19-2,16.81-3.72,25-16.51-3.14-35-4-50.95.22-12.17,3.2-33.14,17.25-22.3,32,9.72,13.26,34,15.1,48.43,11.34,15.22-4,27.47-14.23,34.91-27.8a7,7,0,0,0,3.55-5.59c0-19.45,5.09-39.76,8.22-58.94q4.8-29.36,10.29-58.61,5.34-28.46,11.36-56.77c3.61-17,9.09-34.53,11.13-51.94,16,10.92,35.15,17.87,54.18,21.63,20.69,4.08,41.93,5.24,63,4.71,20-.5,41.43-1.89,60.13-9.51,1.92-.79,3.75-1.72,5.56-2.66,1.52,16.29,5,32.55,8,48.55L668.53,917c7.33,39,14.45,78.13,21.82,117.16.46,2.45,2.16,5.46,4.8,6.15,19.25,5.06,38.57,5.21,57.69-.6,15.47-4.7,38.67-14.88,38-34.26-.73-21.06-24-19.75-38.92-17a141.51,141.51,0,0,0-50.66,20.24q-9.68-47.65-19.37-95.31-5.82-28.83-11.62-57.66c-3.51-17.4-6.64-35.25-12.08-52.21a72.3,72.3,0,0,0,24.7-35c7.74-23,5.72-47.19,3.85-70.93a8.31,8.31,0,0,0-1.7-4.55c1.81-.22,3.64-.41,5.45-.64,20.73-2.59,41.48-5.18,62.14-8.24,8.87-1.31,25.58-2.72,32.94-10,3.33-.73,6.19-3.28,6.86-8,3.41-24.18,4.23-49,6.18-73.3,1.13-14.16,2.13-28.32,3.17-42.49l.9-.6c3.67-2.51,4-8.2,1.42-11.54l-1.33-1.12c.43-5.89.9-11.76,1.32-17.64q2.6-35.89,5.32-71.77c1.85-24.16,3.67-48.33,1.69-72.54C810.7,370.37,805.61,367.2,801.09,367.65ZM386.35,1038.4a38.62,38.62,0,0,1-17.33,1.85c-1.95-.22-16.19-2.62-16.63-5.71s6.57-6,8.68-6.79c4.89-1.89,10.26-2.47,15.46-2.8a146.45,146.45,0,0,1,27.13,1.15A39.61,39.61,0,0,1,386.35,1038.4Zm320.52-14a125.82,125.82,0,0,1,35.56-18.14c4.66-1.49,40.17-11,32,2.94-5.87,10-24.82,15.17-35.31,17.16a91.37,91.37,0,0,1-34.26-.14l-.14-.7A9.35,9.35,0,0,0,706.87,1024.45ZM286.66,290.05C278.73,175.24,385.92,74,525.6,64.31q10.83-.75,21.48-.74c130.31,0,238.73,82.57,246.26,191.44,2.73,39.52-8.29,77.37-29.48,110.48-24.27,2.08-48.23,7.06-72,13-17,4.3-34,9-51.09,13.18-16.9,4.15-34.95,6.08-51.4,11.75-2.46-.39-5.09.57-5.83,3.26-.57,2.12-1.07,4.26-1.56,6.4a5.11,5.11,0,0,0-1.41,6.68c-3.61,18.55-4.8,37.7-6.82,56.39-.09.85-.17,1.69-.26,2.54-6.31.85-12.67,1.57-19.13,2a303,303,0,0,1-79.82-5,6.24,6.24,0,0,0-5.49-1.13C368.87,452.77,292.92,380.51,286.66,290.05ZM557.89,593.8c-3.17,1.83-6.45,3.37-9.77,4.89a106.93,106.93,0,0,0-9.72,5.1c-3,1.74-6.49,3.28-9.26,5.43-.41-1.65.33-3.19,1.09-5.47,1.14-3.41,2.35-6.8,3.66-10.15,2.05-5.28,5.12-10.68,6.55-16.28,2.42-1.15,4.89-2.21,7.3-3.39,5.39-2.66,11.66-5.12,16.86-8.65q-1.3,13.05-2.62,26.09C560.58,592.12,559.23,593,557.89,593.8Zm3.19,6.44-3.87,38.45a17.86,17.86,0,0,1-4.86-3.47c-2.47-2.5-4.74-5.22-7.08-7.83-3.42-3.79-7-7.47-10.48-11.19,2.54-1,5-2.44,7.38-3.65a78.19,78.19,0,0,0,10.14-6.08C555.22,604.37,558.1,602.24,561.08,600.24Zm3.51-51.94c-8,.54-15.2,5.86-22.25,9.32l-.41.19.58-1.53c1.28-3.1,2.57-6.2,3.84-9.3s2.53-6.37,3.78-9.57a33.28,33.28,0,0,0,4.91-2c2.28-1.2,4.52-2.48,6.73-3.8q3-1.81,5.93-3.78l.79-.58c-.72,7-1.48,14.08-2.19,21.13A7.46,7.46,0,0,0,564.59,548.3Zm-1.36-26.49q-2.82,2.09-5.76,4c-1.28.83-2.46,1.52-3.66,2.24q3.13-8,6.13-16.1a104.49,104.49,0,0,0,4.24-12.28q3.65-.36,7.26-.8-1.05,10.14-2.1,20.29C567.09,519,565,520.5,563.23,521.81ZM533,501.21c6.42,0,12.91-.23,19.42-.61-1,2.37-1.88,4.78-2.81,7.08q-3.51,8.71-6.87,17.48c-2.22,5.86-4.5,11.69-6.65,17.58q-1.6,4.41-3.19,8.84c-1.16,3.21-3.21,6.75-2.32,10.19l.53,1.07c-3.92,1.82-7.81,3.72-11.77,5.45Q496.06,578.48,472,586.64c-3.47,1.17-7,2.19-10.48,3.3l4.62-31.58c1.67-11.37,3.37-22.74,4.83-34.14,1.19-9.31,3.55-19.19,2.56-28.59A320,320,0,0,0,533,501.21ZM424,600.62q-12.31,3-24.77,5.5c-4.58.91-9.14,1.9-13.64,1.9a581,581,0,0,1,38.7-60.27c7.95-10.78,16.32-21.22,24.88-31.53,3.91-4.69,8.21-9.27,12.45-13.9-1.32,5.58-2,11.39-3,17.07-2.09,11.87-4,23.77-5.84,35.68q-3.09,19.74-6.2,39.5C439.1,596.73,431.58,598.77,424,600.62ZM638,794.84c-16,7-34.92,8-52.12,8.76a276.07,276.07,0,0,1-57.43-3.4c-33.07-5.53-68.66-21.31-81.48-54.75-7.22-18.81-2.42-39.49.4-58.73q4.4-30.06,8.8-60.12L458.72,609c4.36-1.34,8.75-2.57,13.08-4q26.24-8.67,51.57-19.75c1-.42,1.88-.89,2.83-1.32-1.4,3.17-2.6,6.39-3.79,9.3-3.11,7.62-7.83,16.75-2.51,24.36,4.93,7,11.46,13.3,17.27,19.62,5.24,5.71,10.69,12.77,18.84,13.39l-4.38,43.61c-.66,6.54,4.65,11,10.88,10.62q53.65-3.71,107.08-10a9,9,0,0,0-1,5.42C672,733.11,674.37,779,638,794.84ZM784.81,520.46c-.67,7.6-1.28,15.19-1.94,22.78a35.87,35.87,0,0,1-13.18,5c-.71.09-1.42.14-2.14.18l-1.68-.07a25.93,25.93,0,0,1-2.61-.35l-1.13-.24-.39-.14c-.81-.31-1.61-.61-2.4-1l-.79-.39-.27-.16c-.77-.58-1.55-1.12-2.27-1.77,1.09,1-.67-.9-.93-1.22l-.19-.28-.45-.9a7.42,7.42,0,0,1-.73-2.08,36.74,36.74,0,0,1-.66-6.58c0-3.5.17-9,1.2-12a13.22,13.22,0,0,1,2-4.31,21.55,21.55,0,0,1,2-2.45c-.66.67,1.14-.94,1.54-1.24l1-.71.94-.64,1.86-1q1.27-.62,2.61-1.11l1.14-.41.46-.15.36-.06c5.76-1.29,11.7-.6,17.52.82C785.41,513.5,785.12,517,784.81,520.46ZM791,448.8c-1.3,15.68-2.69,31.34-4,47l-.35-.15a40.88,40.88,0,0,0-18.65-2c-11.33,1.39-21.63,8-26.9,18.18-2.78,5.37-3.63,11.66-3.78,17.63-.16,6.32-.13,12.86,2.46,18.76,4.36,9.94,15.09,15.81,25.68,16.22a41.36,41.36,0,0,0,15.89-2.7c-.86,10.12-1.78,20.23-2.59,30.36-1.71,21.41-4.26,43-5.12,64.49l-1,1.44-.17.22,0,0-.43.64.39-.62-.86.47a39.46,39.46,0,0,1-3.76,1.76c-3.71,1.13-8,1.32-11.84,1.93-9.53,1.51-19,3-28.58,4.51-18.54,2.85-37.11,5.36-55.73,7.64-33.24,4.08-66.57,7.41-99.94,10.26q5.63-61.19,11.26-122.35c11.23,10.93,23.93,21.72,39.91,24.07,16.89,2.49,35-6.43,44.33-20.64,4.85-7.43,7.39-16.11,5.16-24.91-2-8-6.86-15.35-12.51-21.28-6-6.26-13.28-10.8-22.07-11.6s-17.71,1.5-25.92,4.65a95.33,95.33,0,0,0-24.11,13.67c-.6.46-1.1,1-1.68,1.47,1.45-16,2.92-32,4.28-48.06,1.63-19.24,4.29-38.88,4.31-58.33,33.41-5.1,66.4-13.87,99.67-19.76,33-5.84,66.22-10.95,99.53-15.11C794.62,407.41,792.72,428.12,791,448.8ZM587.52,545.39a102.25,102.25,0,0,1,21-14.78c9.55-4.84,24.41-11.25,34.69-5.13,8.93,5.31,18.22,18.76,12.92,29.1s-18.53,17-29.87,15.38c-13.19-1.9-24.07-12.62-33.08-21.61A9.81,9.81,0,0,0,587.52,545.39Z"/></svg>