<svg id="Layer_1" data-name="Layer 1" xmlns="http://www.w3.org/2000/svg" viewBox="0 0 1080 1080"><defs><style>.cls-1{fill:#FF7517;}</style></defs><path class="cls-1" d="M643.19,397.28a15.22,15.22,0,0,0,10.09,9.5,12.53,12.53,0,0,0,12.74-4,17.93,17.93,0,0,0,3.82-9.45c.26-2.21.41-4.44.51-6.68a49.81,49.81,0,0,0,1.24-9.66A29.93,29.93,0,0,0,670,365.4a14.74,14.74,0,0,0-2.51-4.13l-.53-1a12,12,0,0,0-11.24-5.6c-4.57.58-8,3.55-10.21,7.43-3.35,5.83-4.11,13.79-3.9,20.38A46.37,46.37,0,0,0,642,388,25.3,25.3,0,0,0,643.19,397.28Z"/><path class="cls-1" d="M462.85,349.33l-.52-1a12,12,0,0,0-11.25-5.6c-4.57.58-8,3.55-10.2,7.43-3.36,5.84-4.12,13.8-3.91,20.38a46.2,46.2,0,0,0,.47,5.53,25.35,25.35,0,0,0,1.15,9.28,15.21,15.21,0,0,0,10.09,9.49,12.51,12.51,0,0,0,12.74-4,17.93,17.93,0,0,0,3.82-9.45c.26-2.21.41-4.44.51-6.67A50,50,0,0,0,467,365a30.11,30.11,0,0,0-1.62-11.55A14.91,14.91,0,0,0,462.85,349.33Z"/><path class="cls-1" d="M527.15,452.44a56.26,56.26,0,0,0,24.14,8.11c10,.95,20.43-.37,29.54-4.8,7.53-3.66,18.32-8.6,20.75-17.29.51-1.83-1.18-3.11-2.77-3.19-4.19-.21-7.55,1.47-11.34,3.05a59.41,59.41,0,0,1-11.14,3.46c-7.06,1.44-14.32,2.54-21.54,2A43,43,0,0,1,536,437.57c-5.74-3.51-8.79-8.27-12.8-13.41-5.76-7.38-18.54-1.91-15.13,7.55C511.23,440.56,519.4,447.59,527.15,452.44Z"/><path class="cls-1" d="M854,554a9.58,9.58,0,0,0-9.44-10.73c-28.77-.29-57.78,1.81-86.52,2.88-21,.78-41.93,1.79-62.88,2.79a47.86,47.86,0,0,0-5.67-6.69c-2.11-2.25-4.34-4.39-6.65-6.43A147.77,147.77,0,0,0,668,524.47c-5.29-3.61-10.69-7.05-16.07-10.51a109.55,109.55,0,0,0-12.45-7.45,292.07,292.07,0,0,0,77-43.1c51.19-40.2,84.92-97,88.67-161.56q.36-6,.35-12c0-65-30.81-124.76-80.56-169.07S606.28,47.21,529.07,42.7q-10.37-.6-20.58-.6c-75.09,0-143.85,24.08-195.07,64.33s-84.91,97-88.66,161.56h0q-.36,6-.36,12c0,65,30.81,124.76,80.57,169.06,31.36,27.94,70.3,49.86,114.11,63.4-5.11,3.33-10.15,6.79-15.15,10.25-12.78,8.85-25.41,17.89-38.05,26.93q-39.33,28.11-78.64,56.24c-8.84,6.32-19.16,14-15.83,26.41,3.14,11.76,17.1,19,26.45,25.27a587.44,587.44,0,0,0,73.58,42.05c4.95,2.37,10,4.58,15,6.79-1.19,9.49-2.22,19-2.94,28.48-3,39.45,3.4,83.06,33.65,111.47,18.21,17.11,42.12,25.11,66.81,29.11-3.25,24.25-1.17,50-.26,74.11q.78,20.49,2.33,40.94c.48,6.35,1,12.69,1.63,19-22.61-5.55-46.48-5.21-68.73,2.45-10.13,3.49-19.41,10.21-20.58,21.6-1.26,12.27,8.6,19.08,19.47,21,25.16,4.46,52.22-.23,74.77-11.95,4.59-2.38,10.22-4.92,12.58-9.9,2.67-5.64.75-12.38,0-18.2q-3.08-22.86-5.15-45.84c-1.49-16.44-2.64-32.91-3.33-49.4-.58-14-.34-28.26-1.59-42.29,12.3,1.44,24.62,2.09,36.35,2.54a454.61,454.61,0,0,0,70.76-2.81c1.69-.2,3.39-.42,5.08-.64-3.31,22.7-3.59,46.15-6.14,68.84q-4.56,40.66-12.15,80.9c-1,5.24,2.62,9.07,7.28,10.53,23.48,7.36,47.13,14.2,72,14.26,17.65,0,50-3.69,49.83-27.68-.18-21.67-33.95-24.69-49.69-26.2a162,162,0,0,0-57.62,4.93c2.47-18.47,4.54-37,6.07-55.57,1.91-23.38,4.8-48.24,2.71-71.93,11.89-2.19,23.54-5.49,34.2-11.35,19.41-10.68,29-29.66,30.94-51.25,2.36-25.92.63-52.44-3.51-78.09l-.12-.42,3.56-.34c-.64,7.48,3.1,14.93,8.8,20.28,8.15,7.67,20.37,9.4,31.08,9.49,9.36.07,19.48-1.2,27.35-6.68,9.11-6.35,13.41-18.32,13.33-29.13l-.39-1.59q14.85-1.41,29.69-2.82c10.13-.95,20.29-1.79,30.47-2.64l1.1-18.95c.48-1.43.89-3,1.3-4.61,2-7.7,3.35-15.61,5-23.4q5.44-25.92,10.65-51.89c4.43-22.23,8.59-44.51,12.66-66.81ZM484.23,1027.24a110.8,110.8,0,0,1-36.06,10.33,104.66,104.66,0,0,1-18.31.43c-3.37-.25-15.5.21-12.79-5,2.09-4,11.29-5.41,15.16-6.41a104.93,104.93,0,0,1,19.39-3,112.88,112.88,0,0,1,33.43,3.2Zm171.55-14c5.94,0,47.42,3.18,44.79,11.12-2,6.15-16.8,6.81-21.85,7.34a112.89,112.89,0,0,1-26.43-.56c-15-2-29.61-5.85-44.11-10.06A144.48,144.48,0,0,1,655.78,1013.25Zm4.52-479.8c4.76,3.42,9.42,7,13.82,10.88,1.89,1.67,3.69,3.45,5.45,5.26-2.68.14-5.37.22-8.06.36-8.56.44-17.11,1-25.67,1.51a111.61,111.61,0,0,0-14.05-38.75c3.68,4,8.65,7.09,13,10C650,526.27,655.19,529.77,660.3,533.45ZM498.41,572.81c-3.16,11.15-4.32,23-5.76,34.42-1,8.19-2.19,16.37-3.3,24.56a8,8,0,0,0-1.94.08l-41.08,6.5c-11.95,1.88-23.78,3.73-35.2,7.54.75-7.82,1.5-15.65,2.07-23.47l.1-.67a299.83,299.83,0,0,1,9.8-38.69c7.18-21.89,17.44-42.3,28.49-62.38a351.41,351.41,0,0,0,49.21,6.45c5,.29,10,.36,14.95.43-.46,1.27-.94,2.54-1.31,3.83-1,3.5-1.66,7.16-2.39,10.73-1.34,6.54-2.31,13.12-3.43,19.69a42.37,42.37,0,0,0-7.39,2.75c-4.11,2.06-3.88,6.95-.08,8.83a5.14,5.14,0,0,1-4-3A5.22,5.22,0,0,0,498.41,572.81Zm1.9,182.78c7,15.62-10.68,28.44-24.72,21-15.16-8-15.64-25.5-8.74-39a18,18,0,0,0,5.25,2.76,10,10,0,0,0,10.58,11.39c5.72-.5,11.44-1.07,17.17-1.58A7.46,7.46,0,0,0,500.31,755.59Zm-80.8-99a265.4,265.4,0,0,0,28.18-2.89l39.45-5.52c-.16,1.15-.31,2.31-.47,3.46-3.31,23.69-7.21,47.29-11.43,70.83-2.73-3-5.55-6-8.34-8.94-5.43-5.76-10.9-11.5-16.15-17.44A477.26,477.26,0,0,1,419.51,656.6Zm13.73,48.29c-9.27-3.31-18.42-6.93-27.51-10.7q1.25-9.77,2.46-19.53Q420.16,690.23,433.24,704.89ZM574.73,523.58c.7,1.89,1.65,3.73,2.34,5.44l.68,1.72c-3.6.79-7.27,2.19-10.46,3.09-5.66,1.6-11.27,3.33-16.88,5.1-9.73,3.06-19.19,6.4-28.55,10.33.17-1.75.32-3.5.49-5.24.34-3.37.82-6.73,1.17-10.1.21-2.06.28-4.14.33-6.22A343.9,343.9,0,0,0,574.73,523.58Zm-53.4,32.2c10.56-2.63,20.91-5.73,31.35-8.81,5.45-1.61,10.92-3.14,16.38-4.73q4.08-1.18,8.18-2.34c1.24-.34,2.51-.63,3.76-1l.23.59q1.82,5.18,3.14,10.51c.51,2,.56,2.35,1,4.4,0,.2.07.41.1.61l-.36,0c-13.82.91-27.65,1.84-41.45,3-7,.57-14.84.68-22.46,1.49C521.21,558.26,521.24,557,521.33,555.78Zm77.21-1.53c-.51-2.57-1.28-5.13-2-7.57a112.44,112.44,0,0,0-3.85-11,84.62,84.62,0,0,0-5.2-10.92c-.62-1-1.29-2.07-2-3.11q15.8-3,30.93-7.44c.59,1.29,1.19,2.52,1.67,3.6,1.89,4.3,3.83,8.54,5.43,13s2.83,8.67,4,13.06c.3,1.1.59,2.2.87,3.31.17.69.34,1.38.5,2.08l0,.12.07.32c.18.91.32,1.83.49,2.74C619.22,553,608.88,553.59,598.54,554.25ZM245.35,280c0-3.58.1-7.17.31-10.79l-10.45-.61,10.45.61c3.39-57.88,33.46-109.11,80.71-146.31S437.89,63,508.49,63q9.6,0,19.36.56C600.51,67.83,665,95.39,711,136.42s73.56,95.24,73.56,153.43q0,5.37-.31,10.78c-3.4,57.88-33.47,109.12-80.71,146.32S592,506.82,521.38,506.81q-9.6,0-19.36-.57c-72.67-4.23-137.1-31.79-183.12-72.81S245.35,338.18,245.35,280ZM394.54,655.48q-3,15.72-5.42,31.51a583.57,583.57,0,0,1-93.43-53c-1.49-1-6.62-3.72-6.89-5.63-.43-3.14,4.9-5.68,6.92-7.17q10.44-7.66,20.92-15.27l41.85-30.53c13.95-10.18,28-20.27,41.84-30.55,6.94-5.14,13.88-10.3,20.71-15.58,3.65-2.82,7.23-5.74,10.81-8.64q2.13-1.7,4.22-3.44l1.34.33c-12.54,18.88-22.07,39.87-29.29,61.25a307,307,0,0,0-10.75,40.12q-2,10.32-3.26,20.77C393.42,645.34,392.51,650.39,394.54,655.48ZM665.91,798.64c-.67,17.14-3.3,34.41-18.54,44.62-12.76,8.55-28.68,11.17-43.62,13a452.27,452.27,0,0,1-62.31,3.49c-35-.45-78.57-1.9-107-25.14-28.62-23.38-34.35-62.49-32.85-97.31.35-8,1.07-15.88,1.91-23.81q23,9.18,46.59,16.52c-11.19,23.92-6.3,54.8,21.85,65,13.28,4.79,27.75,2,37.5-8.42,9.07-9.73,12.62-24.53,6.67-36.74l-.69-1.12c48.8-4.42,97.58-9.14,146.35-13.82l0,.3A318.54,318.54,0,0,1,665.91,798.64ZM746.36,736a11.26,11.26,0,0,1-4.33,5.73s-2.2,1.29-1.24.8c-.69.35-1.42.63-2.14.91s-1.47.53-2.21.76c0,0-2.44.64-1.53.44a56.74,56.74,0,0,1-10.24,1.06c-6.64.21-14.38-.62-19.54-4.1a20.94,20.94,0,0,1-7.89-10l51.3-4.88C747.67,729.79,747.36,733.5,746.36,736ZM825.19,621q-4.46,26.1-9.26,52.14c-.53,2.84-5,18.68-4.16,28.18-6.35.65-12.7,1.32-19,1.91q-52,4.86-103.94,9.56c-65.08,6-130.19,11.65-195.23,18.08,4.22-25.24,8.05-50.55,11.23-75.94,1.86-14.86,3.37-29.75,4.7-44.66,1-11.23,2.31-23.27,1.38-34.76,11.18,1.15,23.51-.9,34.15-1.55,13.84-.83,27.66-1.77,41.49-2.63q43.22-2.68,86.47-4.74t86.54-3.49c25-.83,50.17-.63,75.21-1.54C831.69,581.43,828.55,601.25,825.19,621Z"/></svg>