<svg id="Layer_1" data-name="Layer 1" xmlns="http://www.w3.org/2000/svg" xmlns:xlink="http://www.w3.org/1999/xlink" viewBox="0 0 3378.79 1080"><defs><style>.cls-1,.cls-10,.cls-2,.cls-6{fill:none;}.cls-10,.cls-2{stroke:#231f20;}.cls-2,.cls-6{stroke-linecap:round;}.cls-10,.cls-2,.cls-6{stroke-miterlimit:10;}.cls-2{stroke-width:22px;}.cls-3{fill:#9bd7d5;}.cls-4{fill:#020202;}.cls-5{clip-path:url(#clip-path);}.cls-6{stroke:#020202;stroke-width:26px;}.cls-7{fill:url(#linear-gradient);}.cls-8{fill:url(#linear-gradient-2);}.cls-9{fill:#231f20;}.cls-10{stroke-width:12px;}</style><clipPath id="clip-path"><circle class="cls-1" cx="688.74" cy="558.7" r="369.19"/></clipPath><linearGradient id="linear-gradient" x1="2536.17" y1="461.26" x2="2839.97" y2="675.88" gradientUnits="userSpaceOnUse"><stop offset="0" stop-color="#c55ea4"/><stop offset="0.07" stop-color="#b765aa"/><stop offset="0.2" stop-color="#9179ba"/><stop offset="0.38" stop-color="#5599d3"/><stop offset="0.41" stop-color="#4b9ed7"/><stop offset="0.49" stop-color="#59a5d0"/><stop offset="0.66" stop-color="#7eb8bf"/><stop offset="0.88" stop-color="#b9d6a3"/><stop offset="1" stop-color="#dce792"/></linearGradient><linearGradient id="linear-gradient-2" x1="1472.79" y1="488.56" x2="1636.19" y2="643.8" xlink:href="#linear-gradient"/></defs><line class="cls-2" x1="2304.91" y1="558.7" x2="1900.14" y2="558.7"/><path class="cls-3" d="M688.75,915.89A357.2,357.2,0,1,1,941.32,811.27,354.86,354.86,0,0,1,688.75,915.89Z"/><path class="cls-4" d="M688.74,213.51a344.09,344.09,0,1,1-134.35,27.12,342.87,342.87,0,0,1,134.35-27.12m0-24c-203.89,0-369.19,165.29-369.19,369.19s165.3,369.19,369.19,369.19,369.2-165.29,369.2-369.19-165.3-369.19-369.2-369.19Z"/><g class="cls-5"><line class="cls-6" x1="714.02" y1="7.98" x2="49.94" y2="672.06"/><line class="cls-6" x1="762.28" y1="56.23" x2="98.19" y2="720.32"/><line class="cls-6" x1="810.53" y1="104.49" x2="146.45" y2="768.57"/><line class="cls-6" x1="858.79" y1="152.74" x2="194.7" y2="816.83"/><line class="cls-6" x1="907.04" y1="201" x2="242.96" y2="865.08"/><line class="cls-6" x1="955.3" y1="249.26" x2="291.21" y2="913.34"/><line class="cls-6" x1="1003.55" y1="297.51" x2="339.47" y2="961.6"/><line class="cls-6" x1="1051.81" y1="345.77" x2="387.72" y2="1009.85"/><line class="cls-6" x1="1100.06" y1="394.02" x2="435.98" y2="1058.11"/><line class="cls-6" x1="1148.32" y1="442.28" x2="484.23" y2="1106.36"/><line class="cls-6" x1="1196.57" y1="490.53" x2="532.49" y2="1154.62"/><line class="cls-6" x1="1244.83" y1="538.79" x2="580.74" y2="1202.87"/></g><path class="cls-3" d="M2674.11,230.51a327,327,0,1,1-127.74,25.77,326.11,326.11,0,0,1,127.74-25.77m0-41c-203.9,0-369.2,165.29-369.2,369.19s165.3,369.19,369.2,369.19S3043.3,762.6,3043.3,558.7,2878,189.51,2674.11,189.51Z"/><circle class="cls-7" cx="2674.11" cy="558.7" r="185.97"/><line class="cls-2" x1="1057.94" y1="558.7" x2="1546.62" y2="558.7"/><circle class="cls-8" cx="1546.62" cy="558.7" r="84.25"/><path class="cls-9" d="M1816.23,486.45A72.26,72.26,0,1,1,1744,558.7a72.33,72.33,0,0,1,72.25-72.25m0-12a84.26,84.26,0,1,0,84.26,84.25,84.25,84.25,0,0,0-84.26-84.25Z"/><circle class="cls-9" cx="1546.62" cy="396.53" r="26.43"/><circle class="cls-9" cx="1816.23" cy="396.53" r="26.43"/><circle class="cls-9" cx="1546.62" cy="720.87" r="26.43"/><circle class="cls-9" cx="1816.23" cy="720.87" r="26.43"/><polyline class="cls-10" points="1546.62 720.87 1546.62 817.43 1816.23 817.43 1816.23 720.87"/><polyline class="cls-10" points="1546.62 396.53 1546.62 299.98 1816.23 299.98 1816.23 396.53"/></svg>