<svg id="Layer_1" data-name="Layer 1" xmlns="http://www.w3.org/2000/svg" viewBox="0 0 1080 1080"><defs><style>.cls-1{fill:#FF7517;}</style></defs><path class="cls-1" d="M782.84,113.38C729.46,69.17,656.2,42.11,575.49,42.1s-154,27.07-207.36,71.28-86.93,105.9-86.92,174.36S314.78,418,368.13,462.1c30.33,25.12,67.09,44.68,108,56.91-24,21.88-46.07,45.87-67.93,69.81-22.76,24.93-45.26,50.18-65.76,77-19.73,25.86-37.67,53.33-51.71,82.72-7.09,14.85-13.14,31.34-11.22,48.08.13,1.08.32,2.14.55,3.2A130,130,0,0,0,268.84,807q-9.07,6-18,12.16-17.91,12.35-35.34,25.35l-.74.67a4.77,4.77,0,0,0-4.46,4.93c1.66,26.26,10.69,52.73,19.22,77.46q6.18,17.94,13.58,35.41c2.65,6.19,5.37,12.37,8.26,18.46,2.24,4.7,4.55,9.49,9.95,11.07s10.37-.8,15.11-3.37c6.1-3.3,12.11-6.76,18.13-10.22q16.56-9.52,32.9-19.47c11.84-7.21,23.64-14.53,35.22-22.15,4.8-3.17,9.52-6.46,14.24-9.75a6.17,6.17,0,0,0,5.22-.33c11.18-5.65,21.54-13.82,31.56-21.28,10.37-7.71,20.33-15.91,30-24.44a7.52,7.52,0,0,0,2.21-8.63c-18.66-45.25-35.79-91.66-58.47-135.08a3.8,3.8,0,0,0-6.8-.32,6.16,6.16,0,0,0-4.73.93c-4.38,2.89-9.44,5-14,7.61-4.76,2.72-9.48,5.54-14.11,8.46-7.16,4.51-14.17,9.2-21.33,13.69a40.85,40.85,0,0,0-13.25-17.67,7.2,7.2,0,0,0-6.56-1.34c4.25-9,9-17.72,13.95-26.24,27.62-47.19,63.76-88.83,100-129.51,19.81-22.23,40.32-43.86,59.79-66.38-10.46,28.18-18.61,57.31-27.39,86q-14.49,47.34-28.86,94.73c-7.72,25.53-18.16,53.78-10.81,80.61C420,812.78,441.18,827,464.54,833.5a216.74,216.74,0,0,0,28.71,5.74c-3,13.71-4.92,27.74-7.49,41.51-3.3,17.61-7,35.14-10.59,52.69-5.82,28.61-10.59,57.1-14.51,85.89a121.38,121.38,0,0,0-51.93-10.62c-12.8.24-34.93,1.89-34.37,19.58.51,16,17.81,25.49,31.73,27.44,9.33,1.31,18.89-.06,28.09-1.63,10.54-1.81,21.13-3.53,31.58-5.8,2.81-.61,5.71-2.86,5.85-6,1.64-36,9.69-72,16.57-107.26,3.44-17.57,6.81-35.14,9.75-52.79,2.29-13.74,4.77-27.82,5.13-41.85a437.52,437.52,0,0,0,49.62,1.79c20.45-.28,41.27-1.62,61.56-5.29-.86,5.29-1.19,10.72-1.58,16q-1,13.23-2,26.46c-1.27,17.66-2.5,35.31-3.87,53-2.7,35.1-4.74,70.24-2.65,105.43.2,3.38,3.3,5.32,6.19,6a141.66,141.66,0,0,0,58.94,2.12c15.39-2.73,35-8.73,35-27.74,0-18-20-22-34-20.65-17.53,1.7-36.59,3.46-53.31,9.87-.57-25.42.47-50.88,1.76-76.28.85-16.81,1.93-33.61,2.92-50.41.52-8.84,1-17.68,1.49-26.52.36-6.28,1-12.83.52-19.2,5.31-1.17,10.6-2.47,15.8-4,23.89-7.18,45.34-21,56.93-43.67s10.49-49.76,5.51-73.95A325.61,325.61,0,0,0,690.18,672c21.87-7.6,43.79-15.63,63-28.79,3.09-2.12,2.45-6.52,0-8.69-40.67-35.25-81-71.07-122.3-105.56,58.61-9.3,111.16-33,152-66.9,53.35-44.15,86.93-105.9,86.92-174.36S836.19,157.53,782.84,113.38Zm-375,705.43.29-.29c7.35,18.38,14.93,36.67,22.29,55-8.14,6.85-16.43,13.52-24.94,19.91-6.83,5.12-14.12,9.73-21.17,14.6-3.79,1.09-7.06,3.54-10.46,5.72q-7.68,4.9-15.42,9.73c-10.3,6.45-20.5,13-30.86,19.36q-15.85,9.72-32,19-7.32,4.21-14.69,8.35c-2.35,1.32-12.43,8.85-14.8,7.86-2.91-1.21-5.53-10.6-7-13.79-2.41-5.38-4.72-10.81-7-16.26q-5.44-13.12-10.29-26.51c24.85-12,48.36-27.23,71.65-42.14.36.72.74,1.42,1.16,2.09a15.49,15.49,0,0,0,3,3.33l1.14.86a14.14,14.14,0,0,0,3,1.55,13,13,0,0,0,3.24.6l1,.27a5,5,0,0,0,2.66-.26,6.74,6.74,0,0,0,2.65-1.52,13.4,13.4,0,0,0,2.75-2.29l.66-.87a15.9,15.9,0,0,0,1.38-2.57,17.35,17.35,0,0,0,1-4.08,19.1,19.1,0,0,0-.45-6.9,23.44,23.44,0,0,0-1.46-4c9.78-6.16,19.55-12.33,29.21-18.7q10.77-7.12,21.44-14.4c4.76-3.24,11-6.35,15.61-10.41h0l.08,0,1.28-.32.66-.23,1.32-.44a6.53,6.53,0,0,0,2.06-1.07Zm-78.49-31.12a43.77,43.77,0,0,0-.72-12.06c8.2-3.18,15.82-7.82,23.39-12.3q6.89-4.08,14-7.84c5-2.65,10.17-5.8,15.53-7.61l.75-.51c6.69,21.51,14.57,42.69,22.87,63.71a5.94,5.94,0,0,0-6-1.54c-7,2-13.4,8.81-19.27,13.12Q370,829.91,360,837c-10.47,7.45-21,14.87-31.6,22.13a10,10,0,0,0-2.1-.55,10.71,10.71,0,0,0-6.85,1.68,6.91,6.91,0,0,0-5,2.73,24.24,24.24,0,0,0-1.46,2.64,20.88,20.88,0,0,0-.88,3.06l-.19,1.44C288,885.57,263.23,899.7,239.74,915.7l-.27-.73c-6.77-19.33-11.55-39.34-18.05-58.74a6.65,6.65,0,0,0,2.26-1.23q16.53-13.61,33.56-26.57,8.38-6.37,16.89-12.58c3-2.18,6.35-4.36,9.45-6.79,4.22,7.15,11.4,11.9,20.91,10.11C319.07,816.42,328.2,801.62,329.35,787.69Zm-15.94.69c-1.08,6.49-12.36,23.61-17.46,11.1-4.89-12,.82-27.63,5.55-38.91a8,8,0,0,0,2.14,2.41A26.33,26.33,0,0,1,313.41,788.38Zm145.16,247c-12.33,1.88-24.56,4.57-37,5.81-10.42,1-25.54.18-31.62-10.23-3.93-6.72,3.56-7.25,8.67-7.92a100.61,100.61,0,0,1,19.93-.63,109.83,109.83,0,0,1,37.92,9.68,6.69,6.69,0,0,0,2.42.59C458.8,1033.59,458.68,1034.49,458.57,1035.39Zm159.67-11.21a256.15,256.15,0,0,1,40.64-10.24c5.08-.83,37.34-7.76,31.3,6.45-4.66,11-25.62,11.79-35.42,12.61a137.12,137.12,0,0,1-36.78-2.22c-.14-2.15-.29-4.3-.41-6.44Zm68.08-265.44c-2.86,23.34-17,41.12-38.09,51-22.45,10.54-48.31,13.34-72.75,15.21a396.81,396.81,0,0,1-89.14-3.05c-20.59-3.11-45.47-9.43-55.94-29.46C418.23,769.14,429,740.23,436,717q14.63-48.76,29.07-97.57c9.45-31.85,19.88-63.66,27-96.12a344.18,344.18,0,0,0,44.55,7.87c-5.87,12.52-8.36,27.24-12.3,40.45-4.23,14.19-9.68,28.15-13.55,42.42-3.34,12.32,5.92,20.61,13,29.63,9.48,12.12,19.19,24.07,28.89,36,0,0,0,0,.06,0a21.47,21.47,0,0,0,1.51,4.3c4.08,8.43,13.62,11.59,22.37,12,11.64.59,23.57-.61,35.07-2.35,20.36-3.09,40.25-8.76,59.78-15.26,1.31,3.67,2.66,7.33,3.92,11C682.83,711.42,689.18,735.41,686.32,758.74ZM571.17,669.25c13.77-14.22,40-10.67,46,9l.11.27-1.49.29a187.89,187.89,0,0,1-34.71,2.88C572.85,681.43,562.05,678.67,571.17,669.25Zm-4.34-25.08a135.94,135.94,0,0,0-10.38,19,25.94,25.94,0,0,0-1.58,2.48c-3.74-4.75-7.5-9.47-11.26-14.21,6.18-4,12.35-8.08,18.43-12.27l10.16-7c2-1.42,4.2-2.82,6.29-4.29-.84,3.13-4.41,6.35-6.25,8.74S568.53,641.57,566.83,644.17Zm1.58-17.57-10.08,7.12c-6.13,4.34-12.16,8.83-18.18,13.31-1.52-1.9-3-3.82-4.54-5.72-3.16-3.94-6.7-7.76-9.88-11.76,4-1.18,7.82-3.27,11.42-5q7.4-3.66,14.69-7.52t14.44-8c2.31-1.35,5.48-2.75,8-4.61.34,1.6.66,3.21,1,4.81.67,3.18,2,7,2.78,10.75C574.7,621.86,571.57,624.37,568.41,626.6Zm.91-28.68q-3.57,2.05-7.16,4.08c-4.66,2.6-9.32,5.19-14,7.72s-9.42,5-14.19,7.4c-4,2-8.55,4-12.23,6.71-2.93-5.59-.09-10.71,1.85-16.65,1.65-5,3.23-10.12,4.8-15.19,7.61-1.8,14.59-5,21.55-8.51,3.4-1.69,6.78-3.43,10.08-5.31a78,78,0,0,0,8-4.66q2.35,11.44,4.72,22.88A15.88,15.88,0,0,0,569.32,597.92Zm-9.7-64.9q3.3,16.07,6.62,32.14l-.67.12c-1.81.54-3.49,1.91-5.11,2.86s-3,1.72-4.46,2.58c-3.3,1.9-6.61,3.76-10,5.53-5.06,2.67-10.22,5.1-15.23,7.83,1.51-5,3-10,4.45-15.08,3.37-11.89,8-24.67,8.5-37.06C549,532.41,554.28,532.78,559.62,533Zm181,105.18c-16.87,9.9-36.46,15.43-54.86,21.61-5-13.15-10.37-26.12-15.8-38.83-11.36-26.58-24.06-52.55-37.86-77.94C667.83,575.24,704.37,606.59,740.61,638.2Zm-135-102.58A934.32,934.32,0,0,1,666.87,666c-11.74,3.71-23.59,7.05-35.61,9.71a7.84,7.84,0,0,0-.27-3.46c-5.71-18.88-25.71-29.15-44.62-26.35a48.22,48.22,0,0,0-12.5,3.86c1.21-2.08,2.41-4.16,3.77-6.17,3.1-4.56,7.61-9,9.13-14.39,1.44-5.18-.55-10.94-1.5-16q-7.49-40-15.09-79.92c1.77,0,3.53.12,5.31.12q14.81,0,29.27-1.22A7.3,7.3,0,0,0,605.66,535.62Zm163.65-89.84C720,486.64,651.44,512.2,575.49,512.18S431,486.64,381.66,445.78s-79.23-96.69-79.25-158,29.93-117.12,79.25-158S499.53,63.29,575.49,63.3,720,88.84,769.31,129.7s79.24,96.69,79.25,158S818.63,404.86,769.31,445.78Z"/><path class="cls-1" d="M351.39,208.58a12.12,12.12,0,0,0-11.7,5l-.59,1a15.25,15.25,0,0,0-2.78,4A30.54,30.54,0,0,0,334,230.17a51.28,51.28,0,0,0,.68,9.83c0,2.27,0,4.54.13,6.78a18.09,18.09,0,0,0,3.3,9.78,12.67,12.67,0,0,0,12.64,4.83,15.39,15.39,0,0,0,10.76-9,25.68,25.68,0,0,0,1.7-9.31,46,46,0,0,0,.81-5.56c.6-6.64.3-14.73-2.75-20.82C359.24,212.64,356,209.44,351.39,208.58Z"/><path class="cls-1" d="M558.87,208.58a12.11,12.11,0,0,0-11.69,5l-.59,1a15.52,15.52,0,0,0-2.79,4,30.73,30.73,0,0,0-2.33,11.58,51.28,51.28,0,0,0,.69,9.83c0,2.27,0,4.54.12,6.78a18.18,18.18,0,0,0,3.31,9.78,12.67,12.67,0,0,0,12.64,4.83,15.35,15.35,0,0,0,10.75-9,25.48,25.48,0,0,0,1.71-9.31,46,46,0,0,0,.8-5.56c.61-6.64.3-14.73-2.74-20.82C566.72,212.64,563.46,209.44,558.87,208.58Z"/><path class="cls-1" d="M481.2,286.63c-4.36,5-7.72,9.6-13.73,12.8a43.52,43.52,0,0,1-19.37,5.13c-7.33.16-14.61-1.39-21.65-3.25a61,61,0,0,1-11.06-4.16c-3.73-1.82-7-3.71-11.28-3.75-1.61,0-3.39,1.19-3,3.06,1.93,8.92,12.55,14.56,19.94,18.7,8.95,5,19.4,7,29.58,6.6A57.13,57.13,0,0,0,475.52,315c8.13-4.44,16.79-11.07,20.53-19.82C500.06,285.79,487.46,279.52,481.2,286.63Z"/></svg>