<svg id="Layer_1" data-name="Layer 1" xmlns="http://www.w3.org/2000/svg" viewBox="0 0 1080 1080"><defs><style>.cls-1{fill:#FF7517;}</style></defs><path class="cls-1" d="M260.76,211.5A12.72,12.72,0,0,0,247.87,215l-.75.93a15.54,15.54,0,0,0-3.47,3.8,32.05,32.05,0,0,0-4.08,11.72,54,54,0,0,0-.68,10.32c-.36,2.36-.66,4.72-.84,7.08a19,19,0,0,0,2,10.64,13.32,13.32,0,0,0,12.46,6.83A16.17,16.17,0,0,0,265,258.53a26.91,26.91,0,0,0,3.1-9.44,46.74,46.74,0,0,0,1.63-5.67c1.58-6.83,2.42-15.29.12-22.07C268.35,216.85,265.4,213.05,260.76,211.5Z"/><path class="cls-1" d="M468.46,296a16.15,16.15,0,0,0,12.47-7.83,26.93,26.93,0,0,0,3.11-9.44,50.2,50.2,0,0,0,1.63-5.68c1.57-6.82,2.41-15.28.11-22.06-1.53-4.51-4.47-8.31-9.12-9.85s-9.6.17-12.88,3.53l-.76.94a16,16,0,0,0-3.47,3.8c-2.19,3.38-3.39,7.76-4.07,11.71a53.41,53.41,0,0,0-.69,10.33c-.35,2.36-.66,4.72-.84,7.07A19,19,0,0,0,456,289.12,13.31,13.31,0,0,0,468.46,296Z"/><path class="cls-1" d="M384.71,311.23c-5.25,4.54-9.4,8.88-16.11,11.36a45.57,45.57,0,0,1-20.89,2.57c-7.66-.87-15-3.52-22.07-6.47a63.83,63.83,0,0,1-10.91-5.9c-3.63-2.43-6.8-4.86-11.21-5.51-1.67-.24-3.7.75-3.54,2.76.74,9.56,11,16.94,18.09,22.3,8.6,6.49,19.19,10,29.83,11.08a59.72,59.72,0,0,0,26.85-3.51c9.09-3.46,19.06-9.12,24.2-17.69C404.45,313,392.24,304.72,384.71,311.23Z"/><path class="cls-1" d="M917,630.55c-1.71-17.24-9.49-33.32-17-48.66-7.32-14.9-14.92-29.66-23.22-44-16.06-27.83-34.85-54.07-58-76.52-11.29-10.95-24.86-22.94-39.73-31.65a43,43,0,0,0-16.31-7.81,78.75,78.75,0,0,0-10.32-3,219.07,219.07,0,0,0,24.79-75.14l-11-1.51,11,1.51a218.6,218.6,0,0,0,2-29.67c0-65.52-29.53-127.35-78.26-175.17s-116.83-82-195-92.73a372.49,372.49,0,0,0-50.49-3.46C382,42.69,314,64.84,261.84,103.06s-88.33,92.73-97.08,156.73h0a218.88,218.88,0,0,0-2,29.68c0,65.52,29.54,127.35,78.27,175.17,41.94,41.17,98.19,72.15,162.81,86.84a742.16,742.16,0,0,0-13.24,97.37,45.72,45.72,0,0,0-22.16,7.9C352,668.35,345.94,691.6,361,707c7.13,7.29,17,11.78,27.53,14,0,2.65,0,5.3.07,8,1,45.73-2.14,111.69,44.39,137.51,11.74,6.52,24.76,9.52,38,10.17-1.81,11.19-2.2,22.81-3.46,33.9-1.66,14.6-3.52,29.18-5.67,43.72-1.75,11.76-3.76,23.49-5.9,35.18-7.95-5.23-18.27-7.85-27.08-9.44a86.7,86.7,0,0,0-38.64,1.84c-11,3.12-22.31,10-26.06,21.39s1.91,22.44,11,29.48c11.18,8.69,25.95,13.87,39.25,18.22,12,3.93,26,8.31,38.24,2.61s15-18,17-30.09c2.67-16.17,5.81-32.24,8.26-48.44,2.69-17.88,5-35.83,6.68-53.84,1.33-14.32,3.77-30,3-44.83,4.43-.4,8.81-1.08,13.15-1.89-.58,11.77,5.37,23.44,14.4,31.73,15.09,13.87,36.07,15.68,55.66,14.43.6,7.88,1.22,15.76,2,23.61,1.2,11.85,4.51,23.08,14.49,30.47,10.7,7.93,24.51,8.59,37.25,7.25,8.08-.85,18.35-3.62,27.44-2.81-15.85,12.25-26.78,34.23-17.92,51.9,5.33,10.63,17.2,18,29.23,16,11.21-1.87,19.05-11.46,23-21.49,8.4-21.2,5.47-50.8-17.14-61.74-12.3-5.95-26.39-4.3-39.38-2.18-12.51,2-31.72,5.39-37.19-9.92-2.64-7.39-2.56-16-3.34-23.74-.31-3-.61-6-.91-8.93,41.51-4.47,83.5-14.49,121.16-32a9.13,9.13,0,0,0,4.89-5.13,77.38,77.38,0,0,0,17.24-1.7,651.37,651.37,0,0,0,84-24c21.93-7.81,47.61-15.62,65-31.9,19.7-18.45,20.33-44.09,14.6-68.9-5.09-22-11.07-43.85-17.19-65.62C905.43,685.54,919.53,656.28,917,630.55ZM449.53,1021c-1.22,4.77-2,11.29-7.4,12.81-5.22,1.48-12.82-1.53-17.67-3-6.28-1.92-12.46-4.13-18.55-6.57-5.68-2.28-30-9.41-20.14-18.75,8.1-7.68,23.4-8.43,33.81-7.68,12.08.86,21.88,6.49,33,9.66C451.64,1012,450.69,1016.48,449.53,1021Zm219.64-30.24c3,7.35,2.32,16.81.34,23.84-1.23,4.37-4,12.08-9.19,13.34-7.13,1.72-11-7.24-10.52-12.76C650.86,1002.88,660.72,997.39,669.17,990.72ZM185,289.46a196.73,196.73,0,0,1,1.82-26.65h0C194.7,205.42,227,156.25,275,121s111.46-56.08,180.5-56.07A350.73,350.73,0,0,1,503,68.2c73.52,10.07,137.24,42.23,182.37,86.56S757,255.34,756.94,314a195.13,195.13,0,0,1-1.82,26.65h0c-7.88,57.39-40.22,106.56-88.19,141.8s-111.45,56.08-180.5,56.07A350.47,350.47,0,0,1,439,535.3c-73.52-10.07-137.25-42.24-182.37-86.56S185,348.16,185,289.46Zm391.75,268,23.73,70.15c-1-.39-2-.86-3-1.17a55.12,55.12,0,0,0-22.38-1.71c-.81-2.28-1.89-4.48-2.79-6.73q-2.14-5.34-3.85-10.83a128.63,128.63,0,0,1-5-23.61c-1.17-10.34-.91-20.7-.39-31.06,4.72-1.05,9.41-2.17,14-3.41A11.27,11.27,0,0,0,576.75,557.43Zm68.92,227.25c.53,1.56,1,3.16,1.48,4.74a30.23,30.23,0,0,1-12.08,17.94A253,253,0,0,1,607.63,746c-5.52-19.05-8.28-38.84-10.63-58.54a101.56,101.56,0,0,0,23.28-1.33l9.34,27.62c4.24,12.52,8.54,25,12.57,37.63,2.39,7.45,4.65,15.32,5.54,23.24A10.37,10.37,0,0,0,645.67,784.68Zm-41-215.61,2.49,2L636,594.44q25.53,20.67,51.2,41.13c-16.16,11.55-33.45,21.91-52,27.33Q620,616,604.69,569.07Zm8,97.71A87.33,87.33,0,0,1,591,665.07c-7.16-1.48-18-3.87-23.09-9.6-5.44-6.09,5.29-10.36,10-11.16C594.19,641.53,608.31,651.83,612.72,666.78ZM435.94,557.36c1.1.15,2.19.25,3.28.39-2.44,5.89-3.69,12.75-5.21,18.19-2.72,9.67-5.14,19.41-7.35,29.2-2.26,10-4.25,20-6.13,30-.9,4.84-1.78,9.7-2.59,14.56-.14.83-.3,1.67-.45,2.53a70.14,70.14,0,0,0-10.89-2.79c1.39-32,4.14-64,7.91-95.73C421.57,555.11,428.7,556.37,435.94,557.36ZM405.67,701.65a36.08,36.08,0,0,1-12.92.56,21.82,21.82,0,0,1-4.26-1.08l-.05,1.61a37.49,37.49,0,0,1-12.29-5.52c-10.3-7.4-7.82-19.38,1.48-26.64a27.75,27.75,0,0,1,11.9-5.41v.25l.55-.2a70.56,70.56,0,0,1,10.23-2.67c6.12-1.26,13-1.95,18.81.86l.19.24a5.91,5.91,0,0,0,2.7,1.57,18.94,18.94,0,0,1,3.29,3.16l.39-.09c1.75.21,3.48.39,5.19.46l.16,0a12.88,12.88,0,0,1,2.21.85A12.35,12.35,0,0,1,440,680.09c.64,13.63-13.18,22-25,23.82a72.62,72.62,0,0,1-9.34.77C405.67,703.67,405.68,702.66,405.67,701.65Zm8.24,106.66c-5.86-24.13-6.45-50-7.51-74.73-.16-3.65-.22-7.29-.33-10.94a76.2,76.2,0,0,0,12.29-1c1.46-.25,2.91-.58,4.35-1-4.34,20.49-4.63,41.52-1.84,62.51a230.26,230.26,0,0,0,8.95,39.57,202,202,0,0,0,9.46,24.94C426,838.89,417.9,824.75,413.91,808.31Zm123.66,90.94c-12.14-4.26-22.14-15-24-27.71,17.85-4.47,35.43-10.46,52.88-16.6-.88,13.07,1.38,27.12,2.39,39.72.2,2.53.38,5.06.57,7.6C558.6,903.12,547.78,902.84,537.57,899.25ZM523.67,848c-20.59,6.62-43.18,12.18-64.74,7.54a7,7,0,0,0-.44-3.12c-4.76-12-10.95-23.22-15-35.61a210.3,210.3,0,0,1-8.2-35.82c-3-21.5-2.65-43.39-.78-65,13.88-7.47,24.18-21,23-37.86-.77-11-7.81-20.13-17.54-24.84a30.16,30.16,0,0,0-9.17-2.61c.57-4,1.14-7.95,1.78-11.92,1.57-9.72,3.47-19.39,5.53-29s4.36-19.21,6.74-28.77c1.23-5,2.54-9.89,3.88-14.82.61-2.28,1.32-4.68,1.77-7.1q18.13,1.77,35.94,1.78a355.39,355.39,0,0,0,68.25-6.57,131,131,0,0,0-.58,29.83,171.41,171.41,0,0,0,3.68,24.38c1.35,5.88,2.7,13.38,5.52,19.37-7.85,3.31-14.3,9-17.14,17.79-7.31,22.47,17.14,34.86,34.91,39.47,1.61.42,3.25.63,4.87.94-3,44.48,12.27,91.1,34.63,129.09-6.66,2.69-13.68,4.79-20,6.93C575,830.72,549.41,839.73,523.67,848Zm67.85,51.47-5.09.74-.09-.9c-1.6-15.68-1.64-33.69-6.37-49.13q5.63-2,11.23-3.85c21.14-7.08,47.16-12.48,63.39-29.08,3.47,13.57,7.42,27,14.66,38.79a54,54,0,0,0,19.09,19.1C657.35,887.61,624.58,894.73,591.52,899.49Zm281.73-97.43c-10.81,16.92-34.73,23.83-52.39,30.54a642.29,642.29,0,0,1-71.68,22.64c-12.32,3.1-26.76,8.17-39.58,6.39-10.81-1.51-18.27-9.69-23.37-18.81-9.87-17.63-10.48-38.54-18-56.91.85-13.78-2.7-28.27-6.76-41.21Q651.36,712.6,641,680.59c.84-.3,1.71-.56,2.54-.87,23.15-8.64,43.67-22.08,63.16-37.06a8.7,8.7,0,0,0-.08-13.62q-30.37-23.73-60.93-47.22L616.23,559.2c-6.49-5-13.28-10.28-20.42-14.76a8,8,0,0,0-.85-.71,304.59,304.59,0,0,0,85.14-43.29,254.81,254.81,0,0,0,60.35-62c5.81-4.07,13.82-4.79,20.48-2.63,10.49,3.4,16.67,14.26,21.17,23.57,10.35,21.46,18.84,44,27,66.36,17,46.43,30.87,93.86,43.33,141.69q9,34.73,17.88,69.52C875.38,756.77,885.41,783,873.25,802.06Zm-.73-132-.07,0c-15.31-54.14-31.62-108.13-52-160.59q-8.86-22.81-18.84-45.18c-.3-.68-.63-1.37-.94-2,1.24,1.11,2.57,2.12,3.78,3.25,20.7,19.34,37.1,42.68,51.15,67.16s27.65,50.83,37.34,77.54C900.21,630.3,902.25,667.82,872.52,670Z"/><path class="cls-1" d="M819.83,671.22c-5.13-2.19-9.35-.1-14.37,1.42-5.32,1.6-10.66,3.13-16,4.66q-16.29,4.66-32.8,8.53c-21.67,5-43.55,9.41-65.44,13.4-5.15.94-3.9,8.14,1.17,7.92A445.74,445.74,0,0,0,759.82,699q16.33-3.22,32.51-7.28c5.25-1.32,10.45-2.8,15.65-4.31s11.19-2.13,14.32-7.09C824.35,677.11,823.61,672.84,819.83,671.22Z"/></svg>